# xmcd
#
# Track frame offsets:
#	187
#	14025
#	27305
#	40067
#	53957
#	65645
#	78042
#	90600
#	102055
#	116190
#	127230
#	139335
#	150992
#	163822
#	176105
#	187722
#	200410
#	210855
#	223010
#	234700
#	245795
#	259360
#	271365
#
# Disc length: 3781
#
# Revision: 2
# Processed by: cddbd v1.5.1PL0 Copyright (c) Steve Scherf et al.
# Submitted via: EasyCDDAExtractor 6.2.0.3
# Normalized: r1:DSETVAR1
#
DISCID=520ec317
DTITLE=Various Artist - Decca Historical Sampler
DYEAR=1994
DGENRE=Country
TTITLE0=Gene Autry - Yodeling Hobo
TTITLE1=The Carter Family - Are You Lonesome Tonight
TTITLE2=Jimmie Davis - You Are My Sunshine
TTITLE3=Tex Ritter - Get Along Little Dogie
TTITLE4=Roy Rogers - Nobody's Fault But My Own
TTITLE5=Sons Of The Pioneers - Cool Water
TTITLE6=Red Foley - Chattanooga Shoe Shine Boy
TTITLE7=Kitty Wells - It Wasn't God Who Made Honky Tonk Angels
TTITLE8=Rex Allen - Crying In The Chapel
TTITLE9=Webb Pierce - There Stands The Glass
TTITLE10=Brenda Lee - One Step At A Time
TTITLE11=Bill Monroe - Gotta Travel On
TTITLE12=Patsy Cline - I Fall To Pieces
TTITLE13=Roy Drusky - Three Hearts In A Tangle
TTITLE14=Ernest Tubb - Thanks A Lot
TTITLE15=Bill Anderson - Still
TTITLE16=Warner Mack - The Bridge Washed Out
TTITLE17=Wilma Burgess - Misty Blue
TTITLE18=Jack Greene - There Goes My Everything
TTITLE19=Conway Twitty - Hello Darlin
TTITLE20=Loretta Lynn - I Was Born A Coal Miner's Daughter
TTITLE21=Conway Twitty and Loretta Lynn - After The Fire Is Gone
TTITLE22=Jerry Wallace - If You Leave Me Tonight I'll Cry
EXTD=
EXTT0=
EXTT1=
EXTT2=
EXTT3=
EXTT4=
EXTT5=
EXTT6=
EXTT7=
EXTT8=
EXTT9=
EXTT10=
EXTT11=
EXTT12=
EXTT13=
EXTT14=
EXTT15=
EXTT16=
EXTT17=
EXTT18=
EXTT19=
EXTT20=
EXTT21=
EXTT22=
PLAYORDER=
